<svg width="243" height="36" viewBox="0 0 243 36" fill="none" xmlns="http://www.w3.org/2000/svg">
<path d="M31.504 35H0.0160002L15.76 0.871999L31.504 35ZM2.8 33.224H28.72L15.76 5.096L2.8 33.224ZM39.7713 1.592H63.2913V3.368H41.5473V16.904H60.4593V18.68H41.5473V33.224H63.2913V35H39.7713V1.592ZM85.9105 1.592H87.7825L101.511 35H99.5905L95.0785 23.96H78.6145L74.0545 35H72.1825L85.9105 1.592ZM79.3345 22.232H94.3585L86.8225 3.896L79.3345 22.232ZM129.602 2.696C131.522 3.592 133.026 4.92 134.114 6.68C135.234 8.44 135.794 10.392 135.794 12.536C135.794 15.032 135.026 17.272 133.49 19.256C131.986 21.208 130.05 22.504 127.682 23.144L136.178 35H134.066L125.858 23.48L124.322 23.528H112.274V35H110.498V1.592H123.218C124.626 1.592 125.826 1.688 126.818 1.88C127.842 2.04 128.77 2.312 129.602 2.696ZM124.802 21.752C126.466 21.752 128.002 21.336 129.41 20.504C130.818 19.672 131.938 18.552 132.77 17.144C133.602 15.736 134.018 14.2 134.018 12.536C134.018 10.68 133.522 9 132.53 7.496C131.57 5.992 130.226 4.872 128.498 4.136C127.25 3.624 125.49 3.368 123.218 3.368H112.274V21.752H124.802ZM146.797 1.592H171.709V3.368H148.573V17.384H167.293V19.16H148.573V35H146.797V1.592ZM193.416 0.871999C195.912 0.871999 198.216 1.496 200.328 2.744C202.44 3.96 204.104 5.624 205.32 7.736C206.568 9.848 207.192 12.152 207.192 14.648V21.944C207.192 24.44 206.568 26.744 205.32 28.856C204.104 30.968 202.44 32.648 200.328 33.896C198.216 35.112 195.912 35.72 193.416 35.72C190.92 35.72 188.616 35.112 186.504 33.896C184.392 32.648 182.712 30.968 181.464 28.856C180.248 26.744 179.64 24.44 179.64 21.944V14.648C179.64 12.152 180.248 9.848 181.464 7.736C182.712 5.624 184.392 3.96 186.504 2.744C188.616 1.496 190.92 0.871999 193.416 0.871999ZM181.416 21.944C181.416 24.12 181.944 26.136 183 27.992C184.088 29.816 185.544 31.272 187.368 32.36C189.224 33.416 191.24 33.944 193.416 33.944C195.592 33.944 197.592 33.416 199.416 32.36C201.272 31.272 202.728 29.816 203.784 27.992C204.872 26.136 205.416 24.12 205.416 21.944V14.648C205.416 12.472 204.872 10.472 203.784 8.648C202.728 6.792 201.272 5.336 199.416 4.28C197.592 3.192 195.592 2.648 193.416 2.648C191.24 2.648 189.224 3.192 187.368 4.28C185.544 5.336 184.088 6.792 183 8.648C181.944 10.472 181.416 12.472 181.416 14.648V21.944ZM215.892 35V1.592H217.764L241.092 24.248V1.592H242.868V35H241.092V26.744L217.668 3.896V35H215.892Z" fill="white"/>
</svg>
