<svg width="158" height="158" viewBox="0 0 158 158" fill="none" xmlns="http://www.w3.org/2000/svg">
<circle cx="79" cy="79" r="79" fill="white"/>
<g clip-path="url(#clip0_23_24)">
<path d="M81.7894 36.9441C81.489 36.6429 81.1322 36.404 80.7394 36.241C80.3466 36.078 79.9255 35.9941 79.5002 35.9941C79.0749 35.9941 78.6538 36.078 78.2609 36.241C77.8681 36.404 77.5113 36.6429 77.211 36.9441L70.7443 43.4107C70.4442 43.7115 70.2064 44.0686 70.0444 44.4614C69.8824 44.8542 69.7994 45.275 69.8002 45.6999V55.3999H89.2002V45.6999C89.2009 45.275 89.1179 44.8542 88.9559 44.4614C88.7939 44.0686 88.5561 43.7115 88.256 43.4107L81.7894 36.9441V36.9441ZM89.2002 61.8666V87.7332H69.8002V61.8666H89.2002ZM95.6668 94.1999V116.833C95.6668 119.406 94.6449 121.873 92.8258 123.692C91.0067 125.511 88.5394 126.533 85.9668 126.533H82.7335V133H76.2668V126.533H73.0335C70.4609 126.533 67.9937 125.511 66.1746 123.692C64.3555 121.873 63.3335 119.406 63.3335 116.833V94.1999H95.6668Z" fill="black"/>
</g>
<defs>
<clipPath id="clip0_23_24">
<rect width="97" height="97" fill="white" transform="translate(31 36)"/>
</clipPath>
</defs>
</svg>
