<svg width="22" height="18" viewBox="0 0 22 18" fill="none" xmlns="http://www.w3.org/2000/svg">
<path d="M6.825 18H4V6.4L2.175 2H0V0H3.525L5.175 4H21.575L18 11.025C18.85 11.1583 19.5627 11.55 20.138 12.2C20.7127 12.85 21 13.6167 21 14.5C21 15.4667 20.6627 16.2917 19.988 16.975C19.3127 17.6583 18.4917 18 17.525 18C16.5417 18 15.7127 17.6583 15.038 16.975C14.3627 16.2917 14.025 15.4667 14.025 14.5C14.025 14.1667 14.0667 13.8583 14.15 13.575C14.2333 13.2917 14.35 13.0167 14.5 12.75L11.225 12.45L6.825 18ZM6 10.7V15.975L8.975 12.25L6.55 12.025L6 10.7ZM17.5 16C17.9333 16 18.2917 15.854 18.575 15.562C18.8583 15.2707 19 14.9167 19 14.5C19 14.0667 18.8583 13.7083 18.575 13.425C18.2917 13.1417 17.9333 13 17.5 13C17.0833 13 16.7293 13.1417 16.438 13.425C16.146 13.7083 16 14.0667 16 14.5C16 14.9167 16.146 15.2707 16.438 15.562C16.7293 15.854 17.0833 16 17.5 16Z" fill="white"/>
</svg>
