<svg width="1155" height="705" viewBox="0 0 1155 705" fill="none" xmlns="http://www.w3.org/2000/svg">
<path d="M50.6818 62L58.4091 15.4545H88.2273L87.0455 22.5227H65.6591L63.5682 35.1591H82.9091L81.7273 42.2273H62.3864L59.1136 62H50.6818ZM88.1818 62L95.9091 15.4545H126.182L125 22.5227H103.159L101.068 35.1591H121.341L120.159 42.2273H99.8864L97.7955 54.9318H119.818L118.636 62H88.1818ZM127.057 62L134.784 15.4545H165.057L163.875 22.5227H142.034L139.943 35.1591H160.216L159.034 42.2273H138.761L136.67 54.9318H158.693L157.511 62H127.057ZM165.932 62L173.659 15.4545H182.091L175.545 54.9318H196.045L194.864 62H165.932ZM222.557 22.5227L223.739 15.4545H260.875L259.693 22.5227H245.307L238.761 62H230.398L236.943 22.5227H222.557ZM260.307 62L268.034 15.4545H276.466L273.193 35.1591H294.761L298.034 15.4545H306.489L298.761 62H290.307L293.58 42.2273H272.011L268.739 62H260.307ZM307.932 62L315.659 15.4545H345.932L344.75 22.5227H322.909L320.818 35.1591H341.091L339.909 42.2273H319.636L317.545 54.9318H339.568L338.386 62H307.932Z" fill="white"/>
<path d="M2.87642 388L39.098 169.818H130.078C146.413 169.818 159.73 172.126 170.028 176.743C180.327 181.359 187.571 187.822 191.761 196.132C196.023 204.442 197.23 214.065 195.384 225.003C193.892 233.241 190.838 240.628 186.222 247.162C181.676 253.625 175.994 259.023 169.176 263.355C162.358 267.616 154.83 270.599 146.591 272.304L146.165 274.435C154.972 274.79 162.749 277.134 169.496 281.466C176.314 285.798 181.357 291.871 184.624 299.683C187.891 307.425 188.636 316.516 186.861 326.956C184.943 338.675 180.22 349.151 172.692 358.384C165.234 367.545 155.398 374.79 143.182 380.116C130.966 385.372 116.832 388 100.781 388H2.87642ZM62.8551 345.493H95.4545C106.747 345.493 115.483 343.327 121.662 338.994C127.912 334.591 131.605 328.554 132.741 320.884C133.665 315.273 133.168 310.443 131.25 306.395C129.332 302.276 126.136 299.115 121.662 296.913C117.188 294.641 111.541 293.504 104.723 293.504H71.1648L62.8551 345.493ZM77.0241 259.52H106.321C112.003 259.52 117.223 258.561 121.982 256.643C126.811 254.726 130.788 251.956 133.913 248.334C137.109 244.712 139.098 240.344 139.879 235.23C141.087 227.915 139.418 222.162 134.872 217.972C130.327 213.781 123.686 211.686 114.95 211.686H84.9077L77.0241 259.52ZM249.29 388H192.614L302.45 169.818H372.656L410.05 388H353.374L329.403 224.79H327.699L249.29 388ZM256.108 302.134H374.574L367.756 342.19H249.29L256.108 302.134ZM569.877 235.656C570.446 227.631 568.315 221.416 563.485 217.013C558.727 212.609 551.199 210.408 540.9 210.408C534.082 210.408 528.258 211.295 523.429 213.071C518.599 214.776 514.799 217.19 512.029 220.315C509.26 223.369 507.52 226.92 506.809 230.969C506.17 234.165 506.348 237.006 507.342 239.491C508.336 241.977 510.076 244.179 512.562 246.097C515.119 248.014 518.279 249.683 522.044 251.104C525.879 252.524 530.176 253.767 534.934 254.832L552.832 259.094C563.201 261.438 572.186 264.562 579.785 268.469C587.456 272.304 593.67 276.956 598.429 282.425C603.187 287.822 606.454 294.037 608.23 301.068C610.005 308.099 610.147 315.983 608.656 324.719C606.383 338.497 600.95 350.322 592.356 360.195C583.833 370.067 572.683 377.631 558.904 382.886C545.197 388.142 529.252 390.77 511.071 390.77C492.889 390.77 477.441 388.036 464.728 382.567C452.086 377.027 442.924 368.682 437.243 357.531C431.561 346.381 430.034 332.318 432.662 315.344H483.052C482.271 322.375 483.159 328.234 485.716 332.922C488.343 337.609 492.392 341.161 497.86 343.575C503.329 345.99 509.934 347.197 517.676 347.197C524.778 347.197 530.993 346.239 536.319 344.321C541.717 342.403 546.014 339.74 549.21 336.331C552.477 332.922 554.466 329.016 555.176 324.612C555.886 320.564 555.211 317.048 553.152 314.065C551.163 311.082 547.754 308.49 542.924 306.288C538.166 304.087 531.916 302.098 524.174 300.322L502.335 294.996C484.295 290.592 470.623 283.561 461.319 273.902C452.086 264.243 448.819 251.139 451.518 234.591C453.791 221.026 459.402 209.165 468.35 199.009C477.37 188.852 488.77 180.969 502.548 175.358C516.397 169.676 531.632 166.835 548.251 166.835C565.154 166.835 579.359 169.712 590.865 175.464C602.441 181.146 610.787 189.172 615.9 199.541C621.085 209.839 622.576 221.878 620.375 235.656H569.877ZM767.924 235.656C768.493 227.631 766.362 221.416 761.532 217.013C756.774 212.609 749.245 210.408 738.947 210.408C732.129 210.408 726.305 211.295 721.476 213.071C716.646 214.776 712.846 217.19 710.076 220.315C707.306 223.369 705.566 226.92 704.856 230.969C704.217 234.165 704.395 237.006 705.389 239.491C706.383 241.977 708.123 244.179 710.609 246.097C713.166 248.014 716.326 249.683 720.091 251.104C723.926 252.524 728.223 253.767 732.981 254.832L750.879 259.094C761.248 261.438 770.233 264.562 777.832 268.469C785.502 272.304 791.717 276.956 796.475 282.425C801.234 287.822 804.501 294.037 806.277 301.068C808.052 308.099 808.194 315.983 806.703 324.719C804.43 338.497 798.997 350.322 790.403 360.195C781.88 370.067 770.73 377.631 756.951 382.886C743.244 388.142 727.299 390.77 709.118 390.77C690.936 390.77 675.488 388.036 662.775 382.567C650.133 377.027 640.971 368.682 635.289 357.531C629.608 346.381 628.081 332.318 630.708 315.344H681.099C680.318 322.375 681.206 328.234 683.762 332.922C686.39 337.609 690.439 341.161 695.907 343.575C701.376 345.99 707.981 347.197 715.723 347.197C722.825 347.197 729.039 346.239 734.366 344.321C739.764 342.403 744.061 339.74 747.257 336.331C750.524 332.922 752.512 329.016 753.223 324.612C753.933 320.564 753.258 317.048 751.199 314.065C749.21 311.082 745.801 308.49 740.971 306.288C736.213 304.087 729.963 302.098 722.221 300.322L700.382 294.996C682.342 290.592 668.67 283.561 659.366 273.902C650.133 264.243 646.866 251.139 649.565 234.591C651.838 221.026 657.449 209.165 666.397 199.009C675.417 188.852 686.816 180.969 700.595 175.358C714.444 169.676 729.679 166.835 746.298 166.835C763.201 166.835 777.406 169.712 788.912 175.464C800.488 181.146 808.833 189.172 813.947 199.541C819.132 209.839 820.623 221.878 818.422 235.656H767.924Z" fill="white"/>
</svg>
