<svg width="1119" height="264" viewBox="0 0 1119 264" fill="none" xmlns="http://www.w3.org/2000/svg">
<path d="M115.5 124.375H136.125L144.375 91.375H115.5V74.875C115.5 66.3775 115.5 58.375 132 58.375H144.375V30.655C141.685 30.3003 131.53 29.5 120.805 29.5C98.406 29.5 82.5 43.1702 82.5 68.275V91.375H57.75V124.375H82.5V194.5H115.5V124.375Z" fill="white"/>
<path d="M491.626 56C484.44 59.2667 476.693 61.4134 468.666 62.44C476.88 57.4934 483.226 49.6534 486.213 40.2267C478.466 44.8934 469.88 48.16 460.826 50.0267C453.453 42 443.093 37.3334 431.333 37.3334C409.4 37.3334 391.48 55.2534 391.48 77.3734C391.48 80.5467 391.853 83.6267 392.506 86.52C359.28 84.84 329.693 68.88 310 44.7067C306.546 50.5867 304.586 57.4934 304.586 64.7734C304.586 78.68 311.586 91 322.413 98C315.786 98 309.626 96.1334 304.213 93.3334V93.6134C304.213 113.027 318.026 129.267 336.32 132.907C330.446 134.514 324.281 134.738 318.306 133.56C320.841 141.517 325.806 148.479 332.503 153.467C339.199 158.456 347.291 161.221 355.64 161.373C341.487 172.577 323.944 178.634 305.893 178.547C302.72 178.547 299.546 178.36 296.373 177.987C314.106 189.373 335.2 196 357.786 196C431.333 196 471.746 134.96 471.746 82.04C471.746 80.2667 471.746 78.5867 471.653 76.8134C479.493 71.2134 486.213 64.12 491.626 56V56Z" fill="white"/>
<path d="M782.307 88.9327C782.199 80.8224 780.681 72.7928 777.821 65.203C775.34 58.8011 771.551 52.9869 766.696 48.1321C761.842 43.2773 756.027 39.4886 749.626 37.008C742.133 34.1955 734.218 32.6747 726.217 32.5105C715.916 32.05 712.65 31.9215 686.5 31.9215C660.35 31.9215 656.998 31.9215 646.772 32.5105C638.775 32.676 630.863 34.1967 623.374 37.008C616.971 39.4868 611.156 43.275 606.301 48.13C601.446 52.985 597.658 58.8 595.179 65.203C592.361 72.6896 590.844 80.6028 590.692 88.6007C590.232 98.9128 590.093 102.179 590.093 128.329C590.093 154.478 590.093 157.819 590.692 168.057C590.853 176.066 592.363 183.969 595.179 191.476C597.662 197.877 601.453 203.689 606.31 208.542C611.167 213.395 616.982 217.182 623.385 219.66C630.853 222.586 638.766 224.215 646.783 224.479C657.095 224.939 660.361 225.078 686.511 225.078C712.66 225.078 716.012 225.078 726.239 224.479C734.239 224.321 742.155 222.804 749.647 219.992C756.047 217.508 761.86 213.719 766.714 208.864C771.569 204.01 775.359 198.197 777.842 191.797C780.658 184.301 782.168 176.398 782.329 168.378C782.789 158.076 782.928 154.81 782.928 128.65C782.907 102.5 782.907 99.1806 782.307 88.9327V88.9327ZM686.436 177.78C659.087 177.78 636.931 155.624 636.931 128.275C636.931 100.926 659.087 78.7705 686.436 78.7705C699.565 78.7705 712.157 83.9861 721.441 93.27C730.725 102.554 735.94 115.146 735.94 128.275C735.94 141.405 730.725 153.996 721.441 163.28C712.157 172.564 699.565 177.78 686.436 177.78V177.78ZM737.911 88.4829C736.394 88.4843 734.893 88.1867 733.491 87.6071C732.09 87.0275 730.817 86.1772 729.745 85.105C728.673 84.0328 727.822 82.7597 727.243 81.3585C726.663 79.9574 726.366 78.4557 726.367 76.9393C726.367 75.4241 726.665 73.9237 727.245 72.5239C727.825 71.124 728.675 69.852 729.747 68.7806C730.818 67.7092 732.09 66.8593 733.49 66.2794C734.89 65.6996 736.39 65.4011 737.905 65.4011C739.42 65.4011 740.921 65.6996 742.321 66.2794C743.721 66.8593 744.993 67.7092 746.064 68.7806C747.135 69.852 747.985 71.124 748.565 72.5239C749.145 73.9237 749.443 75.4241 749.443 76.9393C749.443 83.3215 744.282 88.4829 737.911 88.4829Z" fill="white"/>
<path d="M686.435 160.432C704.195 160.432 718.593 146.035 718.593 128.275C718.593 110.515 704.195 96.118 686.435 96.118C668.676 96.118 654.278 110.515 654.278 128.275C654.278 146.035 668.676 160.432 686.435 160.432Z" fill="white"/>
<path d="M1073.17 44.375C1078.03 44.375 1082.69 46.5787 1086.13 50.5013C1089.57 54.424 1091.5 59.7442 1091.5 65.2917V211.708C1091.5 217.256 1089.57 222.576 1086.13 226.499C1082.69 230.421 1078.03 232.625 1073.17 232.625H944.833C939.971 232.625 935.308 230.421 931.87 226.499C928.432 222.576 926.5 217.256 926.5 211.708V65.2917C926.5 59.7442 928.432 54.424 931.87 50.5013C935.308 46.5787 939.971 44.375 944.833 44.375H1073.17ZM1068.58 206.479V151.05C1068.58 142.008 1065.43 133.336 1059.83 126.942C1054.23 120.548 1046.63 116.956 1038.7 116.956C1030.91 116.956 1021.83 122.394 1017.43 130.552V118.943H991.858V206.479H1017.43V154.92C1017.43 146.867 1023.12 140.278 1030.18 140.278C1033.58 140.278 1036.84 141.821 1039.25 144.566C1041.66 147.312 1043.01 151.036 1043.01 154.92V206.479H1068.58ZM962.067 102.523C966.151 102.523 970.068 100.672 972.956 97.3772C975.844 94.0822 977.467 89.6132 977.467 84.9533C977.467 75.2271 970.592 67.2787 962.067 67.2787C957.958 67.2787 954.018 69.1409 951.112 72.4555C948.207 75.7701 946.575 80.2657 946.575 84.9533C946.575 94.6796 953.542 102.523 962.067 102.523M974.808 206.479V118.943H949.417V206.479H974.808V206.479Z" fill="white"/>
</svg>
