<svg width="158" height="158" viewBox="0 0 158 158" fill="none" xmlns="http://www.w3.org/2000/svg">
<circle cx="79" cy="79" r="79" fill="white"/>
<path d="M79.5001 88.4166C76.0626 88.4166 73.1407 87.2621 70.7344 84.9531C68.3282 82.6441 67.1251 79.8402 67.1251 76.5416V52.7916C67.1251 49.493 68.3282 46.6892 70.7344 44.3802C73.1407 42.0711 76.0626 40.9166 79.5001 40.9166C82.9376 40.9166 85.8594 42.0711 88.2657 44.3802C90.6719 46.6892 91.8751 49.493 91.8751 52.7916V76.5416C91.8751 79.8402 90.6719 82.6441 88.2657 84.9531C85.8594 87.2621 82.9376 88.4166 79.5001 88.4166ZM79.5001 116.125C78.3313 116.125 77.3523 115.745 76.5631 114.985C75.7711 114.228 75.3751 113.288 75.3751 112.167V103.854C68.9813 103.062 63.5501 100.523 59.0813 96.2343C54.6126 91.9461 51.8969 86.8003 50.9344 80.7968C50.7282 79.6753 51.0376 78.6857 51.8626 77.8281C52.6876 76.9704 53.7876 76.5416 55.1626 76.5416C56.1251 76.5416 56.9844 76.8873 57.7407 77.5787C58.4969 78.2727 58.9782 79.1145 59.1844 80.1041C60.0782 84.7222 62.4157 88.5816 66.1969 91.6823C69.9782 94.7829 74.4126 96.3333 79.5001 96.3333C84.5876 96.3333 89.0219 94.7829 92.8032 91.6823C96.5844 88.5816 98.9219 84.7222 99.8157 80.1041C100.022 79.1145 100.521 78.2727 101.313 77.5787C102.102 76.8873 102.978 76.5416 103.941 76.5416C105.247 76.5416 106.313 76.9704 107.138 77.8281C107.963 78.6857 108.272 79.6753 108.066 80.7968C107.103 86.8003 104.388 91.9461 99.9188 96.2343C95.4501 100.523 90.0188 103.062 83.6251 103.854V112.167C83.6251 113.288 83.2304 114.228 82.4412 114.985C81.6492 115.745 80.6688 116.125 79.5001 116.125Z" fill="black"/>
</svg>
