<svg width="963" height="545" viewBox="0 0 963 545" fill="none" xmlns="http://www.w3.org/2000/svg">
<path d="M43.776 141.92C36.9493 141.92 30.784 140.725 25.28 138.336C19.8187 135.904 15.3173 132.448 11.776 127.968C8.27733 123.445 6.05867 118.069 5.12 111.84L23.296 109.152C24.576 114.443 27.2213 118.517 31.232 121.376C35.2427 124.235 39.808 125.664 44.928 125.664C47.7867 125.664 50.56 125.216 53.248 124.32C55.936 123.424 58.1333 122.101 59.84 120.352C61.5893 118.603 62.464 116.448 62.464 113.888C62.464 112.949 62.3147 112.053 62.016 111.2C61.76 110.304 61.312 109.472 60.672 108.704C60.032 107.936 59.1147 107.211 57.92 106.528C56.768 105.845 55.296 105.227 53.504 104.672L29.568 97.632C27.776 97.12 25.6853 96.3947 23.296 95.456C20.9493 94.5173 18.6667 93.1733 16.448 91.424C14.2293 89.6747 12.3733 87.3707 10.88 84.512C9.42933 81.6107 8.704 77.9627 8.704 73.568C8.704 67.3813 10.2613 62.24 13.376 58.144C16.4907 54.048 20.6507 50.9973 25.856 48.992C31.0613 46.9867 36.8213 46.0053 43.136 46.048C49.4933 46.1333 55.168 47.2213 60.16 49.312C65.152 51.4027 69.3333 54.4533 72.704 58.464C76.0747 62.432 78.5067 67.296 80 73.056L61.184 76.256C60.5013 73.2693 59.2427 70.752 57.408 68.704C55.5733 66.656 53.376 65.0987 50.816 64.032C48.2987 62.9653 45.6533 62.3893 42.88 62.304C40.1493 62.2187 37.568 62.6027 35.136 63.456C32.7467 64.2667 30.784 65.4613 29.248 67.04C27.7547 68.6187 27.008 70.496 27.008 72.672C27.008 74.6773 27.6267 76.32 28.864 77.6C30.1013 78.8373 31.6587 79.84 33.536 80.608C35.4133 81.376 37.3333 82.016 39.296 82.528L55.296 86.88C57.6853 87.52 60.3307 88.3733 63.232 89.44C66.1333 90.464 68.9067 91.9147 71.552 93.792C74.24 95.6267 76.4373 98.0587 78.144 101.088C79.8933 104.117 80.768 107.957 80.768 112.608C80.768 117.557 79.7227 121.888 77.632 125.6C75.584 129.269 72.8107 132.32 69.312 134.752C65.8133 137.141 61.8453 138.933 57.408 140.128C53.0133 141.323 48.4693 141.92 43.776 141.92ZM122.483 142.048C117.064 142.048 112.648 141.131 109.235 139.296C105.822 137.461 103.155 135.136 101.235 132.32C99.3577 129.504 98.0137 126.581 97.203 123.552C96.3923 120.48 95.9017 117.685 95.731 115.168C95.5603 112.651 95.475 110.816 95.475 109.664V70.88H113.139V103.52C113.139 105.099 113.224 107.125 113.395 109.6C113.566 112.032 114.099 114.485 114.995 116.96C115.891 119.435 117.342 121.504 119.347 123.168C121.395 124.832 124.275 125.664 127.987 125.664C129.48 125.664 131.08 125.429 132.787 124.96C134.494 124.491 136.094 123.595 137.587 122.272C139.08 120.907 140.296 118.923 141.235 116.32C142.216 113.675 142.707 110.219 142.707 105.952L152.691 110.688C152.691 116.149 151.582 121.269 149.363 126.048C147.144 130.827 143.795 134.688 139.315 137.632C134.878 140.576 129.267 142.048 122.483 142.048ZM144.883 140V117.088H142.707V70.88H160.243V140H144.883ZM180.05 140V70.88H195.41V87.776L193.746 85.6C194.642 83.2107 195.837 81.0347 197.33 79.072C198.823 77.1093 200.658 75.488 202.834 74.208C204.498 73.184 206.311 72.3947 208.274 71.84C210.237 71.2427 212.263 70.88 214.354 70.752C216.445 70.5813 218.535 70.624 220.626 70.88V87.136C218.706 86.5387 216.466 86.3467 213.906 86.56C211.389 86.7307 209.106 87.3067 207.058 88.288C205.01 89.2267 203.282 90.4853 201.874 92.064C200.466 93.6 199.399 95.4347 198.674 97.568C197.949 99.6587 197.586 102.027 197.586 104.672V140H180.05ZM240.48 140V71.136C240.48 69.3867 240.523 67.4027 240.608 65.184C240.693 62.9653 241.035 60.7253 241.632 58.464C242.272 56.2027 243.424 54.1547 245.088 52.32C247.221 49.9307 249.525 48.3093 252 47.456C254.517 46.56 256.949 46.0907 259.296 46.048C261.643 45.9627 263.648 45.92 265.312 45.92H273.888V60H265.952C263.221 60 261.195 60.704 259.872 62.112C258.549 63.4773 257.888 65.12 257.888 67.04V140H240.48ZM229.6 84.32V70.88H273.888V84.32H229.6ZM303.34 141.92C298.391 141.92 294.188 140.981 290.732 139.104C287.319 137.184 284.716 134.645 282.924 131.488C281.175 128.288 280.3 124.768 280.3 120.928C280.3 117.728 280.791 114.805 281.772 112.16C282.753 109.515 284.332 107.189 286.508 105.184C288.727 103.136 291.692 101.429 295.404 100.064C297.964 99.1253 301.015 98.2933 304.556 97.568C308.097 96.8427 312.108 96.16 316.588 95.52C321.068 94.8373 325.996 94.0907 331.372 93.28L325.1 96.736C325.1 92.64 324.119 89.632 322.156 87.712C320.193 85.792 316.908 84.832 312.3 84.832C309.74 84.832 307.073 85.4507 304.3 86.688C301.527 87.9253 299.585 90.1227 298.476 93.28L282.732 88.288C284.481 82.5707 287.767 77.92 292.588 74.336C297.409 70.752 303.98 68.96 312.3 68.96C318.401 68.96 323.82 69.8987 328.556 71.776C333.292 73.6533 336.876 76.896 339.308 81.504C340.673 84.064 341.484 86.624 341.74 89.184C341.996 91.744 342.124 94.6027 342.124 97.76V140H326.892V125.792L329.068 128.736C325.697 133.387 322.049 136.757 318.124 138.848C314.241 140.896 309.313 141.92 303.34 141.92ZM307.052 128.224C310.252 128.224 312.94 127.669 315.116 126.56C317.335 125.408 319.084 124.107 320.364 122.656C321.687 121.205 322.583 119.989 323.052 119.008C323.948 117.131 324.46 114.955 324.588 112.48C324.759 109.963 324.844 107.872 324.844 106.208L329.964 107.488C324.801 108.341 320.62 109.067 317.42 109.664C314.22 110.219 311.639 110.731 309.676 111.2C307.713 111.669 305.985 112.181 304.492 112.736C302.785 113.419 301.399 114.165 300.332 114.976C299.308 115.744 298.54 116.597 298.028 117.536C297.559 118.475 297.324 119.52 297.324 120.672C297.324 122.251 297.708 123.616 298.476 124.768C299.287 125.877 300.417 126.731 301.868 127.328C303.319 127.925 305.047 128.224 307.052 128.224ZM391.149 141.92C383.981 141.92 377.837 140.32 372.717 137.12C367.597 133.92 363.672 129.568 360.941 124.064C358.21 118.56 356.845 112.352 356.845 105.44C356.845 98.4427 358.253 92.192 361.069 86.688C363.928 81.184 367.938 76.8533 373.101 73.696C378.264 70.5387 384.365 68.96 391.405 68.96C399.554 68.96 406.381 71.0293 411.885 75.168C417.432 79.264 420.973 84.8747 422.509 92L405.101 96.608C404.077 93.024 402.285 90.2293 399.725 88.224C397.208 86.2187 394.349 85.216 391.149 85.216C387.48 85.216 384.472 86.112 382.125 87.904C379.778 89.6533 378.05 92.064 376.941 95.136C375.832 98.1653 375.277 101.6 375.277 105.44C375.277 111.456 376.6 116.341 379.245 120.096C381.933 123.808 385.901 125.664 391.149 125.664C395.074 125.664 398.061 124.768 400.109 122.976C402.157 121.184 403.693 118.624 404.717 115.296L422.509 119.008C420.546 126.347 416.834 132 411.373 135.968C405.912 139.936 399.17 141.92 391.149 141.92ZM467.483 141.92C460.4 141.92 454.15 140.405 448.731 137.376C443.355 134.304 439.131 130.101 436.059 124.768C433.03 119.392 431.515 113.248 431.515 106.336C431.515 98.784 433.008 92.2133 435.995 86.624C438.982 81.0347 443.099 76.704 448.347 73.632C453.595 70.5173 459.632 68.96 466.459 68.96C473.712 68.96 479.878 70.6667 484.955 74.08C490.032 77.4933 493.787 82.2933 496.219 88.48C498.651 94.6667 499.504 101.941 498.779 110.304H481.563V103.904C481.563 96.864 480.432 91.808 478.171 88.736C475.952 85.6213 472.304 84.064 467.227 84.064C461.296 84.064 456.923 85.8773 454.107 89.504C451.334 93.088 449.947 98.4 449.947 105.44C449.947 111.883 451.334 116.875 454.107 120.416C456.923 123.915 461.04 125.664 466.459 125.664C469.872 125.664 472.795 124.917 475.227 123.424C477.659 121.931 479.515 119.776 480.795 116.96L498.203 121.952C495.6 128.267 491.483 133.173 485.851 136.672C480.262 140.171 474.139 141.92 467.483 141.92ZM444.571 110.304V97.376H490.395V110.304H444.571Z" fill="white"/>
<g filter="url(#filter0_i_16_19)">
<path d="M71.96 317V224.84H81.368V266.376H132.312V224.84H141.656V317H132.312V275.4H81.368V317H71.96ZM193.953 318.92C187.212 318.92 181.366 317.427 176.417 314.44C171.51 311.453 167.692 307.251 164.961 301.832C162.23 296.413 160.865 290.056 160.865 282.76C160.865 275.208 162.209 268.68 164.897 263.176C167.585 257.672 171.361 253.427 176.225 250.44C181.132 247.453 186.913 245.96 193.569 245.96C200.396 245.96 206.22 247.539 211.041 250.696C215.862 253.811 219.51 258.291 221.985 264.136C224.46 269.981 225.59 276.957 225.377 285.064H215.777V281.736C215.606 272.776 213.665 266.013 209.953 261.448C206.284 256.883 200.908 254.6 193.825 254.6C186.401 254.6 180.705 257.011 176.737 261.832C172.812 266.653 170.849 273.523 170.849 282.44C170.849 291.144 172.812 297.907 176.737 302.728C180.705 307.507 186.316 309.896 193.569 309.896C198.518 309.896 202.828 308.765 206.497 306.504C210.209 304.2 213.132 300.893 215.265 296.584L224.033 299.976C221.302 305.992 217.27 310.664 211.937 313.992C206.646 317.277 200.652 318.92 193.953 318.92ZM167.521 285.064V277.192H220.321V285.064H167.521ZM263.226 318.92C258.021 318.92 253.647 317.981 250.106 316.104C246.607 314.227 243.983 311.731 242.234 308.616C240.485 305.501 239.61 302.109 239.61 298.44C239.61 294.685 240.357 291.485 241.85 288.84C243.386 286.152 245.455 283.955 248.058 282.248C250.703 280.541 253.754 279.24 257.21 278.344C260.709 277.491 264.57 276.744 268.794 276.104C273.061 275.421 277.221 274.845 281.274 274.376C285.37 273.864 288.954 273.373 292.026 272.904L288.698 274.952C288.826 268.125 287.503 263.069 284.73 259.784C281.957 256.499 277.135 254.856 270.266 254.856C265.53 254.856 261.519 255.923 258.234 258.056C254.991 260.189 252.709 263.56 251.386 268.168L242.234 265.48C243.813 259.293 246.991 254.493 251.77 251.08C256.549 247.667 262.757 245.96 270.394 245.96C276.709 245.96 282.063 247.155 286.458 249.544C290.895 251.891 294.031 255.304 295.866 259.784C296.719 261.789 297.274 264.029 297.53 266.504C297.786 268.979 297.914 271.496 297.914 274.056V317H289.53V299.656L291.962 300.68C289.615 306.611 285.967 311.133 281.018 314.248C276.069 317.363 270.138 318.92 263.226 318.92ZM264.314 310.792C268.709 310.792 272.549 310.003 275.834 308.424C279.119 306.845 281.765 304.691 283.77 301.96C285.775 299.187 287.077 296.072 287.674 292.616C288.186 290.397 288.463 287.965 288.506 285.32C288.549 282.632 288.57 280.627 288.57 279.304L292.154 281.16C288.954 281.587 285.477 282.013 281.722 282.44C278.01 282.867 274.341 283.357 270.714 283.912C267.13 284.467 263.887 285.128 260.986 285.896C259.023 286.451 257.125 287.24 255.29 288.264C253.455 289.245 251.941 290.568 250.746 292.232C249.594 293.896 249.018 295.965 249.018 298.44C249.018 300.445 249.509 302.387 250.49 304.264C251.514 306.141 253.135 307.699 255.354 308.936C257.615 310.173 260.602 310.792 264.314 310.792ZM346.511 318.92C340.068 318.92 334.564 317.32 329.999 314.12C325.434 310.877 321.935 306.504 319.503 301C317.071 295.496 315.855 289.288 315.855 282.376C315.855 275.507 317.05 269.32 319.439 263.816C321.871 258.312 325.348 253.96 329.871 250.76C334.394 247.56 339.812 245.96 346.127 245.96C352.612 245.96 358.074 247.539 362.511 250.696C366.948 253.853 370.298 258.184 372.559 263.688C374.863 269.149 376.015 275.379 376.015 282.376C376.015 289.245 374.884 295.453 372.623 301C370.362 306.504 367.034 310.877 362.639 314.12C358.244 317.32 352.868 318.92 346.511 318.92ZM347.471 310.152C352.378 310.152 356.431 308.957 359.631 306.568C362.831 304.179 365.22 300.893 366.799 296.712C368.378 292.488 369.167 287.709 369.167 282.376C369.167 276.957 368.378 272.179 366.799 268.04C365.22 263.859 362.831 260.595 359.631 258.248C356.474 255.901 352.484 254.728 347.663 254.728C342.714 254.728 338.618 255.944 335.375 258.376C332.132 260.808 329.722 264.115 328.143 268.296C326.607 272.477 325.839 277.171 325.839 282.376C325.839 287.624 326.628 292.36 328.207 296.584C329.828 300.765 332.239 304.072 335.439 306.504C338.639 308.936 342.65 310.152 347.471 310.152ZM369.167 317V264.968H368.143V224.84H377.615V317H369.167ZM431.73 318.92C425.373 318.92 419.997 317.32 415.602 314.12C411.207 310.877 407.879 306.504 405.618 301C403.357 295.453 402.226 289.245 402.226 282.376C402.226 275.379 403.357 269.149 405.618 263.688C407.922 258.184 411.293 253.853 415.73 250.696C420.167 247.539 425.629 245.96 432.114 245.96C438.429 245.96 443.847 247.56 448.37 250.76C452.893 253.96 456.349 258.312 458.738 263.816C461.17 269.32 462.386 275.507 462.386 282.376C462.386 289.288 461.17 295.496 458.738 301C456.306 306.504 452.807 310.877 448.242 314.12C443.677 317.32 438.173 318.92 431.73 318.92ZM400.626 347.72V247.88H409.074V299.912H410.098V347.72H400.626ZM430.77 310.152C435.591 310.152 439.602 308.936 442.802 306.504C446.002 304.072 448.391 300.765 449.97 296.584C451.591 292.36 452.402 287.624 452.402 282.376C452.402 277.171 451.613 272.477 450.034 268.296C448.455 264.115 446.045 260.808 442.802 258.376C439.602 255.944 435.527 254.728 430.578 254.728C425.757 254.728 421.746 255.901 418.546 258.248C415.389 260.595 413.021 263.859 411.442 268.04C409.863 272.179 409.074 276.957 409.074 282.376C409.074 287.709 409.863 292.488 411.442 296.712C413.021 300.893 415.41 304.179 418.61 306.568C421.81 308.957 425.863 310.152 430.77 310.152ZM531.48 317V281.736C531.48 277.896 531.117 274.376 530.392 271.176C529.667 267.933 528.493 265.117 526.872 262.728C525.293 260.296 523.224 258.419 520.664 257.096C518.147 255.773 515.075 255.112 511.448 255.112C508.12 255.112 505.176 255.688 502.616 256.84C500.099 257.992 497.965 259.656 496.216 261.832C494.509 263.965 493.208 266.568 492.312 269.64C491.416 272.712 490.968 276.211 490.968 280.136L484.312 278.664C484.312 271.581 485.549 265.629 488.024 260.808C490.499 255.987 493.912 252.339 498.264 249.864C502.616 247.389 507.608 246.152 513.24 246.152C517.379 246.152 520.984 246.792 524.056 248.072C527.171 249.352 529.795 251.08 531.928 253.256C534.104 255.432 535.853 257.928 537.176 260.744C538.499 263.517 539.459 266.483 540.056 269.64C540.653 272.755 540.952 275.869 540.952 278.984V317H531.48ZM481.496 317V224.84H490.008V276.872H490.968V317H481.496ZM591.544 318.92C584.675 318.92 578.808 317.363 573.944 314.248C569.08 311.133 565.347 306.824 562.744 301.32C560.141 295.816 558.84 289.501 558.84 282.376C558.84 275.123 560.163 268.765 562.808 263.304C565.453 257.843 569.208 253.597 574.072 250.568C578.979 247.496 584.803 245.96 591.544 245.96C598.456 245.96 604.344 247.517 609.208 250.632C614.115 253.704 617.848 257.992 620.408 263.496C623.011 268.957 624.312 275.251 624.312 282.376C624.312 289.629 623.011 296.008 620.408 301.512C617.805 306.973 614.051 311.24 609.144 314.312C604.237 317.384 598.371 318.92 591.544 318.92ZM591.544 309.896C599.224 309.896 604.941 307.357 608.696 302.28C612.451 297.16 614.328 290.525 614.328 282.376C614.328 274.013 612.429 267.357 608.632 262.408C604.877 257.459 599.181 254.984 591.544 254.984C586.381 254.984 582.115 256.157 578.744 258.504C575.416 260.808 572.92 264.029 571.256 268.168C569.635 272.264 568.824 277 568.824 282.376C568.824 290.696 570.744 297.373 574.584 302.408C578.424 307.4 584.077 309.896 591.544 309.896ZM693.47 317V281.736C693.47 277.896 693.107 274.376 692.382 271.176C691.657 267.933 690.483 265.117 688.862 262.728C687.283 260.296 685.214 258.419 682.654 257.096C680.137 255.773 677.065 255.112 673.438 255.112C670.11 255.112 667.166 255.688 664.606 256.84C662.089 257.992 659.955 259.656 658.206 261.832C656.499 263.965 655.198 266.568 654.302 269.64C653.406 272.712 652.958 276.211 652.958 280.136L646.302 278.664C646.302 271.581 647.539 265.629 650.014 260.808C652.489 255.987 655.902 252.339 660.254 249.864C664.606 247.389 669.598 246.152 675.23 246.152C679.369 246.152 682.974 246.792 686.046 248.072C689.161 249.352 691.785 251.08 693.918 253.256C696.094 255.432 697.843 257.928 699.166 260.744C700.489 263.517 701.449 266.483 702.046 269.64C702.643 272.755 702.942 275.869 702.942 278.984V317H693.47ZM643.486 317V247.88H651.998V264.904H652.958V317H643.486ZM753.543 318.92C746.802 318.92 740.956 317.427 736.007 314.44C731.1 311.453 727.282 307.251 724.551 301.832C721.82 296.413 720.455 290.056 720.455 282.76C720.455 275.208 721.799 268.68 724.487 263.176C727.175 257.672 730.951 253.427 735.815 250.44C740.722 247.453 746.503 245.96 753.159 245.96C759.986 245.96 765.81 247.539 770.631 250.696C775.452 253.811 779.1 258.291 781.575 264.136C784.05 269.981 785.18 276.957 784.967 285.064H775.367V281.736C775.196 272.776 773.255 266.013 769.543 261.448C765.874 256.883 760.498 254.6 753.415 254.6C745.991 254.6 740.295 257.011 736.327 261.832C732.402 266.653 730.439 273.523 730.439 282.44C730.439 291.144 732.402 297.907 736.327 302.728C740.295 307.507 745.906 309.896 753.159 309.896C758.108 309.896 762.418 308.765 766.087 306.504C769.799 304.2 772.722 300.893 774.855 296.584L783.623 299.976C780.892 305.992 776.86 310.664 771.527 313.992C766.236 317.277 760.242 318.92 753.543 318.92ZM727.111 285.064V277.192H779.911V285.064H727.111ZM830.082 318.856C821.975 318.856 815.298 317.107 810.05 313.608C804.845 310.109 801.645 305.245 800.45 299.016L810.05 297.416C811.074 301.341 813.399 304.477 817.026 306.824C820.695 309.128 825.218 310.28 830.594 310.28C835.842 310.28 839.981 309.192 843.01 307.016C846.039 304.797 847.554 301.789 847.554 297.992C847.554 295.859 847.063 294.131 846.082 292.808C845.143 291.443 843.202 290.184 840.258 289.032C837.314 287.88 832.919 286.515 827.074 284.936C820.802 283.229 815.895 281.523 812.354 279.816C808.813 278.109 806.295 276.147 804.802 273.928C803.309 271.667 802.562 268.915 802.562 265.672C802.562 261.747 803.671 258.312 805.89 255.368C808.109 252.381 811.181 250.077 815.106 248.456C819.031 246.792 823.597 245.96 828.802 245.96C834.007 245.96 838.658 246.813 842.754 248.52C846.893 250.184 850.221 252.531 852.738 255.56C855.255 258.589 856.749 262.109 857.218 266.12L847.618 267.848C846.978 263.795 844.951 260.595 841.538 258.248C838.167 255.859 833.879 254.621 828.674 254.536C823.767 254.408 819.778 255.347 816.706 257.352C813.634 259.315 812.098 261.939 812.098 265.224C812.098 267.059 812.653 268.637 813.762 269.96C814.871 271.24 816.877 272.456 819.778 273.608C822.722 274.76 826.903 276.019 832.322 277.384C838.679 279.005 843.671 280.712 847.298 282.504C850.925 284.296 853.506 286.408 855.042 288.84C856.578 291.272 857.346 294.28 857.346 297.864C857.346 304.392 854.914 309.533 850.05 313.288C845.229 317 838.573 318.856 830.082 318.856Z" fill="#FCFCFC"/>
</g>
<defs>
<filter id="filter0_i_16_19" x="71.96" y="224.84" width="793.386" height="191.88" filterUnits="userSpaceOnUse" color-interpolation-filters="sRGB">
<feFlood flood-opacity="0" result="BackgroundImageFix"/>
<feBlend mode="normal" in="SourceGraphic" in2="BackgroundImageFix" result="shape"/>
<feColorMatrix in="SourceAlpha" type="matrix" values="0 0 0 0 0 0 0 0 0 0 0 0 0 0 0 0 0 0 127 0" result="hardAlpha"/>
<feOffset dx="8" dy="92"/>
<feGaussianBlur stdDeviation="34.5"/>
<feComposite in2="hardAlpha" operator="arithmetic" k2="-1" k3="1"/>
<feColorMatrix type="matrix" values="0 0 0 0 0.145833 0 0 0 0 0.145833 0 0 0 0 0.145833 0 0 0 0.25 0"/>
<feBlend mode="normal" in2="shape" result="effect1_innerShadow_16_19"/>
</filter>
</defs>
</svg>
