<svg width="41" height="37" viewBox="0 0 41 37" fill="none" xmlns="http://www.w3.org/2000/svg">
<path d="M37.0398 36.421L23.9943 24.6316C22.8295 25.4737 21.4901 26.1403 19.9759 26.6316C18.4616 27.1228 16.8504 27.3684 15.142 27.3684C10.91 27.3684 7.32875 26.0442 4.39818 23.3958C1.46606 20.746 0 17.5088 0 13.6842C0 9.85965 1.46606 6.62246 4.39818 3.97263C7.32875 1.32421 10.91 0 15.142 0C19.3741 0 22.9561 1.32421 25.8882 3.97263C28.8188 6.62246 30.2841 9.85965 30.2841 13.6842C30.2841 15.2281 30.0123 16.6842 29.4687 18.0526C28.9252 19.4211 28.1875 20.6316 27.2557 21.6842L40.3594 33.5263C40.7865 33.9123 41 34.386 41 34.9474C41 35.5088 40.767 36 40.3011 36.421C39.8741 36.807 39.3305 37 38.6705 37C38.0104 37 37.4669 36.807 37.0398 36.421V36.421ZM15.142 23.1579C18.054 23.1579 20.5295 22.2372 22.5686 20.3958C24.6062 18.553 25.625 16.3158 25.625 13.6842C25.625 11.0526 24.6062 8.81544 22.5686 6.97263C20.5295 5.13123 18.054 4.21053 15.142 4.21053C12.2301 4.21053 9.75458 5.13123 7.71545 6.97263C5.67788 8.81544 4.65909 11.0526 4.65909 13.6842C4.65909 16.3158 5.67788 18.553 7.71545 20.3958C9.75458 22.2372 12.2301 23.1579 15.142 23.1579Z" fill="white"/>
</svg>
