<svg width="235" height="286" viewBox="0 0 235 286" fill="none" xmlns="http://www.w3.org/2000/svg">
<circle cx="125" cy="126" r="79" fill="white"/>
<path d="M86.2451 116.593C86.2451 114.114 87.2635 110.968 89.2218 106.964C91.1801 102.96 93.1384 99.6233 94.9401 97.0493C95.4101 96.382 96.0368 95.4286 96.7418 94.38C97.4468 93.3313 97.9168 92.7593 97.9951 92.664L100.893 96.7633C103.087 99.7186 105.045 103.055 106.847 106.964C108.648 110.873 109.588 114.019 109.588 116.593C109.588 120.501 108.492 123.933 106.22 126.698C104.027 129.463 101.285 130.893 97.9951 130.893C94.7835 130.893 91.9634 129.463 89.6918 126.698C87.4201 123.838 86.2451 120.501 86.2451 116.593ZM110.685 156.156C110.685 153.391 111.312 150.245 112.565 146.527C113.818 142.905 115.385 139.473 117.265 136.422C120.868 130.607 124.237 125.745 127.527 121.836C127.84 121.55 128.545 120.787 129.563 119.548L131.522 121.836C134.577 125.363 138.023 130.225 141.862 136.327C143.898 139.568 145.465 143 146.718 146.623C147.972 150.245 148.598 153.391 148.598 156.156C148.598 162.734 146.797 168.168 143.115 172.649C139.433 177.129 134.89 179.322 129.563 179.322C124.237 179.322 119.772 177.034 116.09 172.553C112.408 168.073 110.685 162.543 110.685 156.156ZM122.592 90.376C122.592 86.2766 125.177 80.8426 130.425 74.1693L132.383 76.8386C133.872 78.936 135.203 81.224 136.378 83.8933C137.553 86.4673 138.18 88.66 138.18 90.376C138.18 93.0453 137.397 95.1426 135.908 96.954C134.42 98.67 132.618 99.6233 130.425 99.6233C128.153 99.6233 126.273 98.7653 124.785 96.954C123.368 95.2002 122.58 92.8352 122.592 90.376V90.376Z" fill="black"/>
</svg>
